<svg width="389" height="399" viewBox="0 0 389 399" fill="none" xmlns="http://www.w3.org/2000/svg">
<circle cx="58" cy="258" r="58" fill="#FC1666"/>
<circle cx="105" cy="88" r="88" fill="#FF9928"/>
<circle cx="263" cy="273" r="126" fill="url(#paint0_linear_21:30)"/>
<g filter="url(#filter0_b_21:30)">
<rect x="19" y="24" width="351" height="351" rx="20" fill="url(#paint1_linear_21:30)"/>
<rect x="17.5" y="22.5" width="354" height="354" rx="21.5" stroke="url(#paint2_linear_21:30)" stroke-width="3"/>
</g>
<path d="M94.322 139V112.45H102.26C104.612 112.45 106.67 113.002 108.434 114.106C110.198 115.21 111.566 116.758 112.538 118.75C113.522 120.73 114.014 123.046 114.014 125.698C114.014 128.35 113.522 130.678 112.538 132.682C111.566 134.674 110.198 136.228 108.434 137.344C106.67 138.448 104.612 139 102.26 139H94.322ZM101.648 116.23H99.074V135.22H101.648C103.088 135.22 104.372 134.836 105.5 134.068C106.64 133.3 107.54 132.202 108.2 130.774C108.86 129.346 109.19 127.654 109.19 125.698C109.19 123.73 108.86 122.044 108.2 120.64C107.54 119.224 106.64 118.138 105.5 117.382C104.372 116.614 103.088 116.23 101.648 116.23ZM117.966 139V119.884H122.7V122.44C123.24 121.576 123.96 120.88 124.86 120.352C125.772 119.824 126.87 119.56 128.154 119.56C128.922 119.56 129.534 119.62 129.99 119.74C130.446 119.848 130.728 119.938 130.836 120.01L129.972 124.348C129.864 124.264 129.624 124.162 129.252 124.042C128.88 123.91 128.388 123.844 127.776 123.844C126.48 123.844 125.46 124.132 124.716 124.708C123.984 125.284 123.462 126.004 123.15 126.868C122.85 127.732 122.7 128.608 122.7 129.496V139H117.966ZM142.866 139.378C140.85 139.378 139.074 138.958 137.538 138.118C136.002 137.266 134.796 136.09 133.92 134.59C133.056 133.09 132.624 131.374 132.624 129.442C132.624 127.498 133.056 125.788 133.92 124.312C134.796 122.824 136.002 121.66 137.538 120.82C139.074 119.98 140.85 119.56 142.866 119.56C144.882 119.56 146.658 119.98 148.194 120.82C149.73 121.66 150.93 122.824 151.794 124.312C152.67 125.788 153.108 127.498 153.108 129.442C153.108 131.374 152.67 133.09 151.794 134.59C150.93 136.09 149.73 137.266 148.194 138.118C146.658 138.958 144.882 139.378 142.866 139.378ZM142.866 135.508C144.486 135.508 145.8 134.956 146.808 133.852C147.816 132.736 148.32 131.266 148.32 129.442C148.32 127.606 147.816 126.148 146.808 125.068C145.8 123.988 144.486 123.448 142.866 123.448C141.246 123.448 139.932 123.988 138.924 125.068C137.916 126.148 137.412 127.606 137.412 129.442C137.412 131.266 137.916 132.736 138.924 133.852C139.932 134.956 141.246 135.508 142.866 135.508ZM157.024 146.866V119.884H161.758V122.17C162.538 121.342 163.444 120.7 164.476 120.244C165.52 119.788 166.624 119.56 167.788 119.56C169.336 119.56 170.776 119.938 172.108 120.694C173.452 121.45 174.532 122.56 175.348 124.024C176.176 125.488 176.59 127.276 176.59 129.388C176.59 131.56 176.188 133.39 175.384 134.878C174.58 136.366 173.506 137.494 172.162 138.262C170.83 139.018 169.372 139.396 167.788 139.396C166.624 139.396 165.52 139.156 164.476 138.676C163.444 138.196 162.538 137.53 161.758 136.678V146.866H157.024ZM161.776 130.396C161.776 131.344 162.01 132.178 162.478 132.898C162.946 133.618 163.552 134.188 164.296 134.608C165.052 135.016 165.856 135.22 166.708 135.22C168.088 135.22 169.264 134.746 170.236 133.798C171.208 132.85 171.694 131.38 171.694 129.388C171.694 127.384 171.208 125.92 170.236 124.996C169.264 124.06 168.088 123.592 166.708 123.592C165.868 123.592 165.07 123.796 164.314 124.204C163.57 124.6 162.958 125.158 162.478 125.878C162.01 126.586 161.776 127.408 161.776 128.344H161.758V130.216H161.776V130.396ZM189.509 139V119.884H194.243V122.386C194.867 121.51 195.659 120.82 196.619 120.316C197.579 119.812 198.677 119.56 199.913 119.56C201.473 119.56 202.703 119.896 203.603 120.568C204.503 121.228 205.151 122.104 205.547 123.196C206.135 122.092 206.951 121.21 207.995 120.55C209.039 119.89 210.275 119.56 211.703 119.56C213.191 119.56 214.391 119.866 215.303 120.478C216.227 121.09 216.893 121.93 217.301 122.998C217.721 124.066 217.931 125.272 217.931 126.616V139H213.197V128.002C213.197 127.33 213.137 126.664 213.017 126.004C212.897 125.344 212.609 124.798 212.153 124.366C211.709 123.922 210.989 123.7 209.993 123.7C209.021 123.7 208.247 123.952 207.671 124.456C207.107 124.948 206.699 125.578 206.447 126.346C206.207 127.114 206.087 127.9 206.087 128.704V139H201.389V128.038C201.389 127.402 201.329 126.748 201.209 126.076C201.089 125.404 200.801 124.84 200.345 124.384C199.901 123.928 199.187 123.7 198.203 123.7C197.243 123.7 196.475 123.952 195.899 124.456C195.323 124.948 194.903 125.59 194.639 126.382C194.375 127.174 194.243 128.002 194.243 128.866V139H189.509ZM241.691 132.97C241.583 134.038 241.139 135.064 240.359 136.048C239.591 137.032 238.493 137.842 237.065 138.478C235.649 139.102 233.927 139.414 231.899 139.414C229.847 139.414 228.053 138.994 226.517 138.154C224.981 137.314 223.781 136.15 222.917 134.662C222.065 133.162 221.639 131.44 221.639 129.496C221.639 127.516 222.071 125.782 222.935 124.294C223.811 122.806 225.017 121.648 226.553 120.82C228.101 119.98 229.883 119.56 231.899 119.56C233.963 119.56 235.745 119.98 237.245 120.82C238.757 121.66 239.921 122.83 240.737 124.33C241.553 125.83 241.961 127.564 241.961 129.532C241.961 130.156 241.937 130.636 241.889 130.972H226.427C226.667 132.448 227.267 133.6 228.227 134.428C229.187 135.244 230.465 135.652 232.061 135.652C233.741 135.652 234.959 135.364 235.715 134.788C236.483 134.2 236.903 133.594 236.975 132.97H241.691ZM231.953 123.268C230.513 123.268 229.313 123.646 228.353 124.402C227.393 125.158 226.769 126.226 226.481 127.606H237.065C236.969 126.454 236.501 125.446 235.661 124.582C234.821 123.706 233.585 123.268 231.953 123.268ZM261.487 139.396C259.351 139.396 257.611 138.898 256.267 137.902C254.935 136.894 254.269 135.49 254.269 133.69C254.269 132.382 254.623 131.308 255.331 130.468C256.051 129.616 257.017 128.962 258.229 128.506C259.441 128.05 260.785 127.75 262.261 127.606C264.445 127.39 265.969 127.186 266.833 126.994C267.709 126.79 268.147 126.466 268.147 126.022V125.986C268.147 125.146 267.769 124.498 267.013 124.042C266.257 123.586 265.189 123.358 263.809 123.358C262.357 123.358 261.241 123.616 260.461 124.132C259.693 124.648 259.309 125.452 259.309 126.544H254.629C254.629 125.044 255.025 123.778 255.817 122.746C256.621 121.702 257.719 120.91 259.111 120.37C260.503 119.83 262.081 119.56 263.845 119.56C265.477 119.56 266.977 119.806 268.345 120.298C269.725 120.79 270.829 121.534 271.657 122.53C272.485 123.526 272.899 124.768 272.899 126.256V134.968C272.899 135.424 272.911 135.874 272.935 136.318C272.971 136.75 273.037 137.14 273.133 137.488C273.253 137.884 273.397 138.214 273.565 138.478C273.733 138.73 273.865 138.904 273.961 139H269.281C269.197 138.916 269.077 138.754 268.921 138.514C268.777 138.262 268.645 137.974 268.525 137.65C268.441 137.41 268.375 137.158 268.327 136.894C267.619 137.674 266.665 138.286 265.465 138.73C264.277 139.174 262.951 139.396 261.487 139.396ZM262.639 135.67C263.623 135.67 264.535 135.502 265.375 135.166C266.227 134.83 266.905 134.314 267.409 133.618C267.925 132.91 268.183 132.004 268.183 130.9V130C267.475 130.192 266.695 130.354 265.843 130.486C264.991 130.606 264.139 130.708 263.287 130.792C261.871 130.936 260.803 131.188 260.083 131.548C259.375 131.896 259.021 132.478 259.021 133.294C259.021 134.878 260.227 135.67 262.639 135.67ZM99.308 147.866V176H94.646V147.866H99.308ZM106.417 153.356C105.649 153.356 104.977 153.152 104.401 152.744C103.837 152.324 103.555 151.742 103.555 150.998C103.555 150.266 103.837 149.696 104.401 149.288C104.977 148.88 105.649 148.676 106.417 148.676C107.173 148.676 107.833 148.88 108.397 149.288C108.961 149.696 109.243 150.266 109.243 150.998C109.243 151.754 108.961 152.336 108.397 152.744C107.833 153.152 107.173 153.356 106.417 153.356ZM104.059 176V156.884H108.739V176H104.059ZM113.431 176V156.884H118.165V159.764C118.897 158.768 119.827 157.988 120.955 157.424C122.095 156.848 123.325 156.56 124.645 156.56C126.949 156.56 128.701 157.226 129.901 158.558C131.101 159.89 131.701 161.672 131.701 163.904V176H126.949V165.254C126.949 163.958 126.661 162.878 126.085 162.014C125.509 161.138 124.435 160.7 122.863 160.7C121.483 160.7 120.355 161.18 119.479 162.14C118.603 163.1 118.165 164.318 118.165 165.794V176H113.431ZM155.453 169.97C155.345 171.038 154.901 172.064 154.121 173.048C153.353 174.032 152.255 174.842 150.827 175.478C149.411 176.102 147.689 176.414 145.661 176.414C143.609 176.414 141.815 175.994 140.279 175.154C138.743 174.314 137.543 173.15 136.679 171.662C135.827 170.162 135.401 168.44 135.401 166.496C135.401 164.516 135.833 162.782 136.697 161.294C137.573 159.806 138.779 158.648 140.315 157.82C141.863 156.98 143.645 156.56 145.661 156.56C147.725 156.56 149.507 156.98 151.007 157.82C152.519 158.66 153.683 159.83 154.499 161.33C155.315 162.83 155.723 164.564 155.723 166.532C155.723 167.156 155.699 167.636 155.651 167.972H140.189C140.429 169.448 141.029 170.6 141.989 171.428C142.949 172.244 144.227 172.652 145.823 172.652C147.503 172.652 148.721 172.364 149.477 171.788C150.245 171.2 150.665 170.594 150.737 169.97H155.453ZM145.715 160.268C144.275 160.268 143.075 160.646 142.115 161.402C141.155 162.158 140.531 163.226 140.243 164.606H150.827C150.731 163.454 150.263 162.446 149.423 161.582C148.583 160.706 147.347 160.268 145.715 160.268ZM170.948 176V160.664H166.898V156.884H170.948V155.174C170.948 153.77 171.176 152.588 171.632 151.628C172.088 150.656 172.694 149.876 173.45 149.288C174.206 148.688 175.052 148.256 175.988 147.992C176.924 147.728 177.866 147.596 178.814 147.596C179.534 147.596 180.08 147.644 180.452 147.74C180.836 147.824 181.094 147.89 181.226 147.938V151.754C181.082 151.706 180.83 151.652 180.47 151.592C180.122 151.52 179.744 151.484 179.336 151.484C178.352 151.484 177.596 151.664 177.068 152.024C176.54 152.384 176.174 152.876 175.97 153.5C175.778 154.112 175.682 154.796 175.682 155.552V156.884H180.974V160.664H175.682V176H170.948ZM192.647 176.378C190.631 176.378 188.855 175.958 187.319 175.118C185.783 174.266 184.577 173.09 183.701 171.59C182.837 170.09 182.405 168.374 182.405 166.442C182.405 164.498 182.837 162.788 183.701 161.312C184.577 159.824 185.783 158.66 187.319 157.82C188.855 156.98 190.631 156.56 192.647 156.56C194.663 156.56 196.439 156.98 197.975 157.82C199.511 158.66 200.711 159.824 201.575 161.312C202.451 162.788 202.889 164.498 202.889 166.442C202.889 168.374 202.451 170.09 201.575 171.59C200.711 173.09 199.511 174.266 197.975 175.118C196.439 175.958 194.663 176.378 192.647 176.378ZM192.647 172.508C194.267 172.508 195.581 171.956 196.589 170.852C197.597 169.736 198.101 168.266 198.101 166.442C198.101 164.606 197.597 163.148 196.589 162.068C195.581 160.988 194.267 160.448 192.647 160.448C191.027 160.448 189.713 160.988 188.705 162.068C187.697 163.148 187.193 164.606 187.193 166.442C187.193 168.266 187.697 169.736 188.705 170.852C189.713 171.956 191.027 172.508 192.647 172.508ZM206.806 176V156.884H211.54V159.44C212.08 158.576 212.8 157.88 213.7 157.352C214.612 156.824 215.71 156.56 216.994 156.56C217.762 156.56 218.374 156.62 218.83 156.74C219.286 156.848 219.568 156.938 219.676 157.01L218.812 161.348C218.704 161.264 218.464 161.162 218.092 161.042C217.72 160.91 217.228 160.844 216.616 160.844C215.32 160.844 214.3 161.132 213.556 161.708C212.824 162.284 212.302 163.004 211.99 163.868C211.69 164.732 211.54 165.608 211.54 166.496V176H206.806ZM100.928 213.396C98.792 213.396 97.052 212.898 95.708 211.902C94.376 210.894 93.71 209.49 93.71 207.69C93.71 206.382 94.064 205.308 94.772 204.468C95.492 203.616 96.458 202.962 97.67 202.506C98.882 202.05 100.226 201.75 101.702 201.606C103.886 201.39 105.41 201.186 106.274 200.994C107.15 200.79 107.588 200.466 107.588 200.022V199.986C107.588 199.146 107.21 198.498 106.454 198.042C105.698 197.586 104.63 197.358 103.25 197.358C101.798 197.358 100.682 197.616 99.902 198.132C99.134 198.648 98.75 199.452 98.75 200.544H94.07C94.07 199.044 94.466 197.778 95.258 196.746C96.062 195.702 97.16 194.91 98.552 194.37C99.944 193.83 101.522 193.56 103.286 193.56C104.918 193.56 106.418 193.806 107.786 194.298C109.166 194.79 110.27 195.534 111.098 196.53C111.926 197.526 112.34 198.768 112.34 200.256V208.968C112.34 209.424 112.352 209.874 112.376 210.318C112.412 210.75 112.478 211.14 112.574 211.488C112.694 211.884 112.838 212.214 113.006 212.478C113.174 212.73 113.306 212.904 113.402 213H108.722C108.638 212.916 108.518 212.754 108.362 212.514C108.218 212.262 108.086 211.974 107.966 211.65C107.882 211.41 107.816 211.158 107.768 210.894C107.06 211.674 106.106 212.286 104.906 212.73C103.718 213.174 102.392 213.396 100.928 213.396ZM102.08 209.67C103.064 209.67 103.976 209.502 104.816 209.166C105.668 208.83 106.346 208.314 106.85 207.618C107.366 206.91 107.624 206.004 107.624 204.9V204C106.916 204.192 106.136 204.354 105.284 204.486C104.432 204.606 103.58 204.708 102.728 204.792C101.312 204.936 100.244 205.188 99.524 205.548C98.816 205.896 98.462 206.478 98.462 207.294C98.462 208.878 99.668 209.67 102.08 209.67ZM116.735 213V193.884H121.469V196.764C122.201 195.768 123.131 194.988 124.259 194.424C125.399 193.848 126.629 193.56 127.949 193.56C130.253 193.56 132.005 194.226 133.205 195.558C134.405 196.89 135.005 198.672 135.005 200.904V213H130.253V202.254C130.253 200.958 129.965 199.878 129.389 199.014C128.813 198.138 127.739 197.7 126.167 197.7C124.787 197.7 123.659 198.18 122.783 199.14C121.907 200.1 121.469 201.318 121.469 202.794V213H116.735ZM140.161 221.208C139.597 221.208 139.093 221.178 138.649 221.118C138.205 221.07 137.929 221.022 137.821 220.974V217.284C137.965 217.356 138.229 217.41 138.613 217.446C138.997 217.494 139.393 217.518 139.801 217.518C140.773 217.518 141.571 217.23 142.195 216.654C142.819 216.078 143.287 215.334 143.599 214.422L144.013 213.216L137.425 193.884H142.375L146.605 208.806L150.727 193.884H155.587L148.891 214.17C148.423 215.574 147.859 216.804 147.199 217.86C146.539 218.916 145.651 219.738 144.535 220.326C143.419 220.914 141.961 221.208 140.161 221.208ZM167.426 213.36C166.742 213.36 166.046 213.294 165.338 213.162C164.642 213.042 163.994 212.802 163.394 212.442C162.806 212.07 162.332 211.536 161.972 210.84C161.612 210.144 161.432 209.226 161.432 208.086V197.664H156.914V193.884H158.75C159.578 193.884 160.178 193.83 160.55 193.722C160.934 193.602 161.174 193.314 161.27 192.858C161.378 192.402 161.432 191.658 161.432 190.626V187.584H166.184V193.884H171.872V197.664H166.184V206.646C166.184 207.546 166.286 208.266 166.49 208.806C166.706 209.334 167.222 209.598 168.038 209.598C168.422 209.598 168.782 209.562 169.118 209.49C169.466 209.418 169.724 209.346 169.892 209.274V212.982C169.652 213.066 169.316 213.15 168.884 213.234C168.464 213.318 167.978 213.36 167.426 213.36ZM175.446 213V184.866H180.18V196.368C180.9 195.492 181.806 194.808 182.898 194.316C183.99 193.812 185.214 193.56 186.57 193.56C188.886 193.56 190.656 194.25 191.88 195.63C193.104 196.998 193.716 198.906 193.716 201.354V213H188.982V202.614C188.982 201.03 188.67 199.818 188.046 198.978C187.434 198.126 186.384 197.7 184.896 197.7C183.396 197.7 182.232 198.132 181.404 198.996C180.588 199.848 180.18 200.958 180.18 202.326V213H175.446ZM200.566 190.356C199.798 190.356 199.126 190.152 198.55 189.744C197.986 189.324 197.704 188.742 197.704 187.998C197.704 187.266 197.986 186.696 198.55 186.288C199.126 185.88 199.798 185.676 200.566 185.676C201.322 185.676 201.982 185.88 202.546 186.288C203.11 186.696 203.392 187.266 203.392 187.998C203.392 188.754 203.11 189.336 202.546 189.744C201.982 190.152 201.322 190.356 200.566 190.356ZM198.208 213V193.884H202.888V213H198.208ZM207.579 213V193.884H212.313V196.764C213.045 195.768 213.975 194.988 215.103 194.424C216.243 193.848 217.473 193.56 218.793 193.56C221.097 193.56 222.849 194.226 224.049 195.558C225.249 196.89 225.849 198.672 225.849 200.904V213H221.097V202.254C221.097 200.958 220.809 199.878 220.233 199.014C219.657 198.138 218.583 197.7 217.011 197.7C215.631 197.7 214.503 198.18 213.627 199.14C212.751 200.1 212.313 201.318 212.313 202.794V213H207.579ZM243.248 211.11C244.94 211.266 246.308 211.674 247.352 212.334C248.408 212.982 248.936 214.074 248.936 215.61C248.936 217.35 248.066 218.718 246.326 219.714C244.586 220.722 242.072 221.226 238.784 221.226C235.58 221.226 233.12 220.764 231.404 219.84C229.7 218.916 228.848 217.674 228.848 216.114C228.848 215.67 228.902 215.268 229.01 214.908C229.118 214.548 229.25 214.248 229.406 214.008L233.744 214.638C233.672 214.734 233.6 214.884 233.528 215.088C233.456 215.304 233.42 215.562 233.42 215.862C233.42 216.606 233.918 217.14 234.914 217.464C235.922 217.8 237.26 217.968 238.928 217.968C240.752 217.968 242.138 217.782 243.086 217.41C244.034 217.038 244.508 216.534 244.508 215.898C244.508 215.274 244.226 214.872 243.662 214.692C243.098 214.524 242.426 214.404 241.646 214.332L234.392 213.666C233.096 213.534 232.028 213.15 231.188 212.514C230.36 211.878 229.946 211.038 229.946 209.994C229.946 209.226 230.186 208.53 230.666 207.906C231.158 207.27 231.644 206.802 232.124 206.502C230.528 205.158 229.73 203.388 229.73 201.192C229.73 199.692 230.114 198.372 230.882 197.232C231.65 196.08 232.7 195.18 234.032 194.532C235.364 193.884 236.876 193.56 238.568 193.56C240.02 193.56 241.322 193.818 242.474 194.334C243.638 194.85 244.52 195.498 245.12 196.278L245.39 193.884H249.638L247.91 201.3C247.586 202.692 247.064 203.94 246.344 205.044C245.636 206.148 244.676 207.018 243.464 207.654C242.252 208.29 240.74 208.608 238.928 208.608C237.356 208.608 235.94 208.38 234.68 207.924C234.512 208.068 234.368 208.236 234.248 208.428C234.128 208.62 234.068 208.824 234.068 209.04C234.068 209.412 234.236 209.724 234.572 209.976C234.908 210.216 235.556 210.384 236.516 210.48L243.248 211.11ZM238.91 204.954C240.29 204.954 241.388 204.624 242.204 203.964C243.02 203.304 243.428 202.356 243.428 201.12C243.428 199.92 243.014 198.978 242.186 198.294C241.37 197.61 240.284 197.268 238.928 197.268C237.608 197.268 236.516 197.616 235.652 198.312C234.8 199.008 234.374 199.956 234.374 201.156C234.374 202.368 234.782 203.304 235.598 203.964C236.426 204.624 237.53 204.954 238.91 204.954ZM94.376 250V230.884H99.11V233.44C99.65 232.576 100.37 231.88 101.27 231.352C102.182 230.824 103.28 230.56 104.564 230.56C105.332 230.56 105.944 230.62 106.4 230.74C106.856 230.848 107.138 230.938 107.246 231.01L106.382 235.348C106.274 235.264 106.034 235.162 105.662 235.042C105.29 234.91 104.798 234.844 104.186 234.844C102.89 234.844 101.87 235.132 101.126 235.708C100.394 236.284 99.872 237.004 99.56 237.868C99.26 238.732 99.11 239.608 99.11 240.496V250H94.376ZM129.086 243.97C128.978 245.038 128.534 246.064 127.754 247.048C126.986 248.032 125.888 248.842 124.46 249.478C123.044 250.102 121.322 250.414 119.294 250.414C117.242 250.414 115.448 249.994 113.912 249.154C112.376 248.314 111.176 247.15 110.312 245.662C109.46 244.162 109.034 242.44 109.034 240.496C109.034 238.516 109.466 236.782 110.33 235.294C111.206 233.806 112.412 232.648 113.948 231.82C115.496 230.98 117.278 230.56 119.294 230.56C121.358 230.56 123.14 230.98 124.64 231.82C126.152 232.66 127.316 233.83 128.132 235.33C128.948 236.83 129.356 238.564 129.356 240.532C129.356 241.156 129.332 241.636 129.284 241.972H113.822C114.062 243.448 114.662 244.6 115.622 245.428C116.582 246.244 117.86 246.652 119.456 246.652C121.136 246.652 122.354 246.364 123.11 245.788C123.878 245.2 124.298 244.594 124.37 243.97H129.086ZM119.348 234.268C117.908 234.268 116.708 234.646 115.748 235.402C114.788 236.158 114.164 237.226 113.876 238.606H124.46C124.364 237.454 123.896 236.446 123.056 235.582C122.216 234.706 120.98 234.268 119.348 234.268ZM138.191 221.866V250H133.529V221.866H138.191ZM149.584 250.396C147.448 250.396 145.708 249.898 144.364 248.902C143.032 247.894 142.366 246.49 142.366 244.69C142.366 243.382 142.72 242.308 143.428 241.468C144.148 240.616 145.114 239.962 146.326 239.506C147.538 239.05 148.882 238.75 150.358 238.606C152.542 238.39 154.066 238.186 154.93 237.994C155.806 237.79 156.244 237.466 156.244 237.022V236.986C156.244 236.146 155.866 235.498 155.11 235.042C154.354 234.586 153.286 234.358 151.906 234.358C150.454 234.358 149.338 234.616 148.558 235.132C147.79 235.648 147.406 236.452 147.406 237.544H142.726C142.726 236.044 143.122 234.778 143.914 233.746C144.718 232.702 145.816 231.91 147.208 231.37C148.6 230.83 150.178 230.56 151.942 230.56C153.574 230.56 155.074 230.806 156.442 231.298C157.822 231.79 158.926 232.534 159.754 233.53C160.582 234.526 160.996 235.768 160.996 237.256V245.968C160.996 246.424 161.008 246.874 161.032 247.318C161.068 247.75 161.134 248.14 161.23 248.488C161.35 248.884 161.494 249.214 161.662 249.478C161.83 249.73 161.962 249.904 162.058 250H157.378C157.294 249.916 157.174 249.754 157.018 249.514C156.874 249.262 156.742 248.974 156.622 248.65C156.538 248.41 156.472 248.158 156.424 247.894C155.716 248.674 154.762 249.286 153.562 249.73C152.374 250.174 151.048 250.396 149.584 250.396ZM150.736 246.67C151.72 246.67 152.632 246.502 153.472 246.166C154.324 245.83 155.002 245.314 155.506 244.618C156.022 243.91 156.28 243.004 156.28 241.9V241C155.572 241.192 154.792 241.354 153.94 241.486C153.088 241.606 152.236 241.708 151.384 241.792C149.968 241.936 148.9 242.188 148.18 242.548C147.472 242.896 147.118 243.478 147.118 244.294C147.118 245.878 148.324 246.67 150.736 246.67ZM173.719 250.36C173.035 250.36 172.339 250.294 171.631 250.162C170.935 250.042 170.287 249.802 169.687 249.442C169.099 249.07 168.625 248.536 168.265 247.84C167.905 247.144 167.725 246.226 167.725 245.086V234.664H163.207V230.884H165.043C165.871 230.884 166.471 230.83 166.843 230.722C167.227 230.602 167.467 230.314 167.563 229.858C167.671 229.402 167.725 228.658 167.725 227.626V224.584H172.477V230.884H178.165V234.664H172.477V243.646C172.477 244.546 172.579 245.266 172.783 245.806C172.999 246.334 173.515 246.598 174.331 246.598C174.715 246.598 175.075 246.562 175.411 246.49C175.759 246.418 176.017 246.346 176.185 246.274V249.982C175.945 250.066 175.609 250.15 175.177 250.234C174.757 250.318 174.271 250.36 173.719 250.36ZM200.418 243.97C200.31 245.038 199.866 246.064 199.086 247.048C198.318 248.032 197.22 248.842 195.792 249.478C194.376 250.102 192.654 250.414 190.626 250.414C188.574 250.414 186.78 249.994 185.244 249.154C183.708 248.314 182.508 247.15 181.644 245.662C180.792 244.162 180.366 242.44 180.366 240.496C180.366 238.516 180.798 236.782 181.662 235.294C182.538 233.806 183.744 232.648 185.28 231.82C186.828 230.98 188.61 230.56 190.626 230.56C192.69 230.56 194.472 230.98 195.972 231.82C197.484 232.66 198.648 233.83 199.464 235.33C200.28 236.83 200.688 238.564 200.688 240.532C200.688 241.156 200.664 241.636 200.616 241.972H185.154C185.394 243.448 185.994 244.6 186.954 245.428C187.914 246.244 189.192 246.652 190.788 246.652C192.468 246.652 193.686 246.364 194.442 245.788C195.21 245.2 195.63 244.594 195.702 243.97H200.418ZM190.68 234.268C189.24 234.268 188.04 234.646 187.08 235.402C186.12 236.158 185.496 237.226 185.208 238.606H195.792C195.696 237.454 195.228 236.446 194.388 235.582C193.548 234.706 192.312 234.268 190.68 234.268ZM212.529 250.396C210.945 250.396 209.487 250.018 208.155 249.262C206.823 248.494 205.755 247.366 204.951 245.878C204.147 244.39 203.745 242.56 203.745 240.388C203.745 238.276 204.153 236.488 204.969 235.024C205.797 233.56 206.877 232.45 208.209 231.694C209.553 230.938 210.993 230.56 212.529 230.56C213.693 230.56 214.797 230.788 215.841 231.244C216.885 231.7 217.791 232.336 218.559 233.152V221.866H223.311V250H218.559V247.714C217.803 248.542 216.909 249.196 215.877 249.676C214.845 250.156 213.729 250.396 212.529 250.396ZM213.627 246.22C214.503 246.22 215.313 246.01 216.057 245.59C216.801 245.17 217.401 244.594 217.857 243.862C218.325 243.118 218.559 242.266 218.559 241.306V239.344C218.559 238.408 218.319 237.586 217.839 236.878C217.371 236.158 216.759 235.6 216.003 235.204C215.259 234.796 214.467 234.592 213.627 234.592C212.247 234.592 211.071 235.06 210.099 235.996C209.127 236.92 208.641 238.384 208.641 240.388C208.641 242.38 209.127 243.85 210.099 244.798C211.071 245.746 212.247 246.22 213.627 246.22ZM245.754 250.36C245.07 250.36 244.374 250.294 243.666 250.162C242.97 250.042 242.322 249.802 241.722 249.442C241.134 249.07 240.66 248.536 240.3 247.84C239.94 247.144 239.76 246.226 239.76 245.086V234.664H235.242V230.884H237.078C237.906 230.884 238.506 230.83 238.878 230.722C239.262 230.602 239.502 230.314 239.598 229.858C239.706 229.402 239.76 228.658 239.76 227.626V224.584H244.512V230.884H250.2V234.664H244.512V243.646C244.512 244.546 244.614 245.266 244.818 245.806C245.034 246.334 245.55 246.598 246.366 246.598C246.75 246.598 247.11 246.562 247.446 246.49C247.794 246.418 248.052 246.346 248.22 246.274V249.982C247.98 250.066 247.644 250.15 247.212 250.234C246.792 250.318 246.306 250.36 245.754 250.36ZM262.643 250.378C260.627 250.378 258.851 249.958 257.315 249.118C255.779 248.266 254.573 247.09 253.697 245.59C252.833 244.09 252.401 242.374 252.401 240.442C252.401 238.498 252.833 236.788 253.697 235.312C254.573 233.824 255.779 232.66 257.315 231.82C258.851 230.98 260.627 230.56 262.643 230.56C264.659 230.56 266.435 230.98 267.971 231.82C269.507 232.66 270.707 233.824 271.571 235.312C272.447 236.788 272.885 238.498 272.885 240.442C272.885 242.374 272.447 244.09 271.571 245.59C270.707 247.09 269.507 248.266 267.971 249.118C266.435 249.958 264.659 250.378 262.643 250.378ZM262.643 246.508C264.263 246.508 265.577 245.956 266.585 244.852C267.593 243.736 268.097 242.266 268.097 240.442C268.097 238.606 267.593 237.148 266.585 236.068C265.577 234.988 264.263 234.448 262.643 234.448C261.023 234.448 259.709 234.988 258.701 236.068C257.693 237.148 257.189 238.606 257.189 240.442C257.189 242.266 257.693 243.736 258.701 244.852C259.709 245.956 261.023 246.508 262.643 246.508ZM96.608 287L92.666 267.884H97.58L100.064 283.562L103.898 267.884H108.956L112.826 283.562L115.292 267.884H120.206L116.282 287H109.784L106.436 272.636L103.142 287H96.608ZM142.27 280.97C142.162 282.038 141.718 283.064 140.938 284.048C140.17 285.032 139.072 285.842 137.644 286.478C136.228 287.102 134.506 287.414 132.478 287.414C130.426 287.414 128.632 286.994 127.096 286.154C125.56 285.314 124.36 284.15 123.496 282.662C122.644 281.162 122.218 279.44 122.218 277.496C122.218 275.516 122.65 273.782 123.514 272.294C124.39 270.806 125.596 269.648 127.132 268.82C128.68 267.98 130.462 267.56 132.478 267.56C134.542 267.56 136.324 267.98 137.824 268.82C139.336 269.66 140.5 270.83 141.316 272.33C142.132 273.83 142.54 275.564 142.54 277.532C142.54 278.156 142.516 278.636 142.468 278.972H127.006C127.246 280.448 127.846 281.6 128.806 282.428C129.766 283.244 131.044 283.652 132.64 283.652C134.32 283.652 135.538 283.364 136.294 282.788C137.062 282.2 137.482 281.594 137.554 280.97H142.27ZM132.532 271.268C131.092 271.268 129.892 271.646 128.932 272.402C127.972 273.158 127.348 274.226 127.06 275.606H137.644C137.548 274.454 137.08 273.446 136.24 272.582C135.4 271.706 134.164 271.268 132.532 271.268ZM146.442 287V258.866H151.194V270.152C151.962 269.336 152.868 268.7 153.912 268.244C154.956 267.788 156.054 267.56 157.206 267.56C158.754 267.56 160.194 267.944 161.526 268.712C162.87 269.468 163.95 270.578 164.766 272.042C165.594 273.494 166.008 275.276 166.008 277.388C166.008 279.56 165.606 281.39 164.802 282.878C163.998 284.366 162.924 285.494 161.58 286.262C160.248 287.018 158.79 287.396 157.206 287.396C156.054 287.396 154.956 287.156 153.912 286.676C152.868 286.196 151.962 285.536 151.194 284.696V287H146.442ZM156.126 271.592C155.286 271.592 154.488 271.796 153.732 272.204C152.988 272.6 152.376 273.158 151.896 273.878C151.428 274.586 151.194 275.408 151.194 276.344V278.396C151.194 279.344 151.428 280.178 151.896 280.898C152.364 281.618 152.97 282.188 153.714 282.608C154.47 283.016 155.274 283.22 156.126 283.22C157.506 283.22 158.682 282.746 159.654 281.798C160.626 280.85 161.112 279.38 161.112 277.388C161.112 275.384 160.626 273.92 159.654 272.996C158.682 272.06 157.506 271.592 156.126 271.592ZM177.865 287.396C176.281 287.396 174.823 287.018 173.491 286.262C172.159 285.494 171.091 284.366 170.287 282.878C169.483 281.39 169.081 279.56 169.081 277.388C169.081 275.276 169.489 273.488 170.305 272.024C171.133 270.56 172.213 269.45 173.545 268.694C174.889 267.938 176.329 267.56 177.865 267.56C179.029 267.56 180.133 267.788 181.177 268.244C182.221 268.7 183.127 269.336 183.895 270.152V258.866H188.647V287H183.895V284.714C183.139 285.542 182.245 286.196 181.213 286.676C180.181 287.156 179.065 287.396 177.865 287.396ZM178.963 283.22C179.839 283.22 180.649 283.01 181.393 282.59C182.137 282.17 182.737 281.594 183.193 280.862C183.661 280.118 183.895 279.266 183.895 278.306V276.344C183.895 275.408 183.655 274.586 183.175 273.878C182.707 273.158 182.095 272.6 181.339 272.204C180.595 271.796 179.803 271.592 178.963 271.592C177.583 271.592 176.407 272.06 175.435 272.996C174.463 273.92 173.977 275.384 173.977 277.388C173.977 279.38 174.463 280.85 175.435 281.798C176.407 282.746 177.583 283.22 178.963 283.22ZM212.512 280.97C212.404 282.038 211.96 283.064 211.18 284.048C210.412 285.032 209.314 285.842 207.886 286.478C206.47 287.102 204.748 287.414 202.72 287.414C200.668 287.414 198.874 286.994 197.338 286.154C195.802 285.314 194.602 284.15 193.738 282.662C192.886 281.162 192.46 279.44 192.46 277.496C192.46 275.516 192.892 273.782 193.756 272.294C194.632 270.806 195.838 269.648 197.374 268.82C198.922 267.98 200.704 267.56 202.72 267.56C204.784 267.56 206.566 267.98 208.066 268.82C209.578 269.66 210.742 270.83 211.558 272.33C212.374 273.83 212.782 275.564 212.782 277.532C212.782 278.156 212.758 278.636 212.71 278.972H197.248C197.488 280.448 198.088 281.6 199.048 282.428C200.008 283.244 201.286 283.652 202.882 283.652C204.562 283.652 205.78 283.364 206.536 282.788C207.304 282.2 207.724 281.594 207.796 280.97H212.512ZM202.774 271.268C201.334 271.268 200.134 271.646 199.174 272.402C198.214 273.158 197.59 274.226 197.302 275.606H207.886C207.79 274.454 207.322 273.446 206.482 272.582C205.642 271.706 204.406 271.268 202.774 271.268ZM232.828 267.884L226.834 287H220.48L214.342 267.884H219.238L223.666 283.958L227.932 267.884H232.828ZM236.751 287.504C236.007 287.504 235.377 287.246 234.861 286.73C234.345 286.214 234.087 285.584 234.087 284.84C234.087 284.108 234.345 283.484 234.861 282.968C235.377 282.44 236.007 282.176 236.751 282.176C237.483 282.176 238.107 282.44 238.623 282.968C239.151 283.484 239.415 284.108 239.415 284.84C239.415 285.584 239.151 286.214 238.623 286.73C238.107 287.246 237.483 287.504 236.751 287.504Z" fill="white"/>
<defs>
<filter id="filter0_b_21:30" x="-34" y="-29" width="457" height="457" filterUnits="userSpaceOnUse" color-interpolation-filters="sRGB">
<feFlood flood-opacity="0" result="BackgroundImageFix"/>
<feGaussianBlur in="BackgroundImage" stdDeviation="25"/>
<feComposite in2="SourceAlpha" operator="in" result="effect1_backgroundBlur_21:30"/>
<feBlend mode="normal" in="SourceGraphic" in2="effect1_backgroundBlur_21:30" result="shape"/>
</filter>
<linearGradient id="paint0_linear_21:30" x1="263" y1="147" x2="263" y2="399" gradientUnits="userSpaceOnUse">
<stop stop-color="#FF7261"/>
<stop offset="1" stop-color="#FF3920"/>
</linearGradient>
<linearGradient id="paint1_linear_21:30" x1="19" y1="24" x2="370" y2="375" gradientUnits="userSpaceOnUse">
<stop stop-color="white" stop-opacity="0.4"/>
<stop offset="1" stop-color="white" stop-opacity="0.1"/>
</linearGradient>
<linearGradient id="paint2_linear_21:30" x1="358" y1="375" x2="31.5" y2="24" gradientUnits="userSpaceOnUse">
<stop stop-color="white"/>
<stop offset="0.339734" stop-color="white" stop-opacity="0.2"/>
<stop offset="1" stop-color="white"/>
</linearGradient>
</defs>
</svg>
