<svg width="451" height="420" viewBox="0 0 451 420" fill="none" xmlns="http://www.w3.org/2000/svg">
<path opacity="0.41" d="M178.774 356.376C174.926 356.376 171.077 356.205 167.22 355.892C124.985 352.415 76.0552 332.205 55.0274 295.413C36.6375 263.197 29.4234 221.583 37.791 185.71C45.6765 151.969 70.0608 124.652 104.221 114.277C142.646 102.613 185.109 116.788 222.919 100.851C277.947 77.6653 347.11 96.1133 385.667 140.201C419.865 179.324 428.138 242.4 417.407 291.272C411.98 315.974 397.712 339.766 374.992 352.197C356.924 362.099 335.083 364.051 314.414 361.464C297.793 359.398 282.494 353.96 266.516 349.497C253.685 345.953 243.19 347.772 230.048 350.378C213.199 353.723 196.01 356.442 178.774 356.376Z" fill="#1E1C2B"/>
<path d="M188.212 332.78C185.102 332.78 181.992 332.647 178.882 332.382C144.746 329.539 105.227 313.221 88.2302 283.438C73.3671 257.408 67.5314 223.74 74.3019 194.668C80.657 167.377 100.374 145.26 127.985 136.865C159.033 127.389 193.349 138.892 223.906 125.996C268.372 107.233 324.265 122.13 355.436 157.844C383.066 189.494 389.751 240.541 381.083 280.084C376.701 300.078 365.162 319.324 346.805 329.359C332.206 337.366 314.548 338.948 297.853 336.864C284.416 335.186 272.055 330.79 259.137 327.17C248.75 324.27 240.251 325.777 229.694 327.89C216.03 330.638 202.168 332.836 188.212 332.78Z" stroke="#A7A9BE" stroke-width="1.95" stroke-miterlimit="10" stroke-dasharray="3.85 3.85"/>
<g style="mix-blend-mode:multiply" opacity="0.87">
<path d="M428.885 403.949C440.833 403.949 450.52 403.209 450.52 402.297C450.52 401.384 440.833 400.645 428.885 400.645C416.937 400.645 407.25 401.384 407.25 402.297C407.25 403.209 416.937 403.949 428.885 403.949Z" fill="#515159"/>
</g>
<path d="M431.628 339.941C431.628 339.941 413.105 327.329 425.011 308.985C436.917 290.64 433.928 284.328 429.771 279.114C439.881 290.653 437.667 303.77 431.628 312.128C425.589 320.487 424.642 331.817 431.628 339.941Z" fill="#AFAFAF"/>
<path d="M446.744 355.598H411.026L414.507 400.916H443.263L446.744 355.598Z" fill="#FEFEFE"/>
<path d="M450.52 353.28H407.25V358.593H450.52V353.28Z" fill="#8B8B8C"/>
<path d="M442.021 348.497H415.749C414.497 348.497 413.295 348.995 412.41 349.883C411.524 350.771 411.026 351.975 411.026 353.231V353.231H446.695C446.695 351.983 446.204 350.787 445.329 349.9C444.454 349.014 443.265 348.51 442.021 348.497Z" fill="#5A5A63"/>
<path d="M444.764 381.425L445.6 370.441H412.17L413.007 381.425H444.764Z" fill="#FF8906"/>
<g style="mix-blend-mode:multiply">
<path d="M446.744 353.28C446.744 352.024 446.246 350.82 445.36 349.932C444.475 349.045 443.273 348.546 442.021 348.546H428.996C430.248 348.546 431.45 349.045 432.335 349.932C433.221 350.82 433.719 352.024 433.719 353.28V353.28H437.495V358.593H433.485L430.226 400.99H443.263L446.522 358.655H450.52V353.28H446.744Z" fill="#AFAFAF"/>
</g>
<path d="M254.96 71.3959C254.96 71.3959 262.45 47.8614 251.516 41.0316C244.555 37.4441 240.766 41.9069 240.766 41.9069C240.766 41.9069 237.495 25.2639 214.938 30.8115C200.351 34.3744 195.738 26.8295 195.738 26.8295C195.738 26.8295 195.603 47.6888 205.652 53.9515C212.933 60.2143 210.141 77.1162 210.141 77.1162L254.96 71.3959Z" fill="#2F2F35"/>
<g style="mix-blend-mode:multiply" opacity="0.87">
<path d="M321.327 378.923C321.327 378.923 361.915 380.155 373.206 390.622C385.112 401.631 397.608 418.841 346.356 418.508C295.105 418.175 249.683 404.035 206.697 408.522C163.711 413.01 128.449 420.74 118.142 419.026C107.835 417.312 181.102 382.14 181.102 382.14L317.072 387.145L321.327 378.923Z" fill="#515159"/>
</g>
<path d="M283.396 287.484L232.267 282.331L181.139 287.484C181.139 287.484 178.089 311.697 168.249 324.617L232.292 347.671L296.335 324.617C286.434 311.697 283.396 287.484 283.396 287.484Z" fill="#A87D1D"/>
<g style="mix-blend-mode:multiply">
<path d="M230.25 346.943L232.267 347.671L234.285 346.943C246.067 319.821 243.251 289.284 242.55 283.367L232.267 282.331L219.107 283.663C218.849 290.172 218.406 319.944 230.25 346.943Z" fill="#A87D1D"/>
</g>
<g style="mix-blend-mode:multiply">
<path d="M180.844 289.457C180.844 289.457 234.641 313.238 286.618 302.907C285.215 297.841 284.143 292.69 283.408 287.484L232.28 282.331L191.2 286.473L180.856 289.457H180.844Z" fill="#895436"/>
</g>
<path d="M205.676 53.8406C212.958 60.1033 210.166 77.0052 210.166 77.0052L219.685 75.7724C229.525 67.0564 240.496 56.0473 238.897 51.8558C236.08 44.5698 227.975 37.2962 213.068 36.4579C198.162 35.6195 195.849 26.7433 195.849 26.7433C195.849 26.7433 195.628 47.6395 205.676 53.8406Z" fill="#515159"/>
<path d="M230.41 112.905L188.138 128.34L181.139 287.484C181.139 287.484 196.083 294.499 232.268 294.499V115.371L230.41 112.905Z" fill="white"/>
<path d="M234.125 112.905L276.398 128.34L283.396 287.484C283.396 287.484 268.452 294.499 232.268 294.499V115.371L234.125 112.905Z" fill="white"/>
<path d="M188.138 128.34L187.941 128.414C181.844 130.603 176.281 134.064 171.616 138.567C166.952 143.07 163.294 148.513 160.882 154.537L115.51 264.616L154.093 269.226L186.699 188.945L188.138 128.34Z" fill="#FF7E6E"/>
<path d="M276.397 128.34L276.594 128.414C282.689 130.605 288.252 134.067 292.916 138.569C297.58 143.072 301.239 148.514 303.653 154.537L349.05 264.616L310.467 269.226L277.824 188.945L276.397 128.34Z" fill="#FF7E6E"/>
<path d="M321.303 197.291L303.69 154.537C301.276 148.514 297.617 143.072 292.953 138.569C288.289 134.067 282.727 130.605 276.631 128.414L276.435 128.34L277.861 188.994L287.11 211.715C299.422 201.347 311.82 197.982 321.303 197.291Z" fill="#E8E8E8"/>
<path d="M143.22 197.291L160.87 154.537C163.281 148.513 166.94 143.07 171.604 138.567C176.268 134.064 181.832 130.603 187.928 128.414L188.125 128.34L186.698 188.945L177.449 211.666C165.113 201.347 152.715 197.982 143.22 197.291Z" fill="#E8E8E8"/>
<path d="M279.153 191.09C278.149 189.602 277.229 188.059 276.398 186.467L277.824 188.933C277.824 188.933 261.737 278.398 218.787 294.08C222.92 294.302 227.397 294.437 232.317 294.437C268.501 294.437 283.445 287.423 283.445 287.423L279.153 191.09Z" fill="#D3D3D3"/>
<g style="mix-blend-mode:overlay" opacity="0.52">
<path d="M168.249 179.366C179.147 148.706 179.762 148.94 203.573 143.319C227.385 137.697 222.711 115.728 222.711 115.728L200.498 123.84L197.067 125.073L188.162 128.315L187.965 128.389C181.869 130.579 176.305 134.039 171.641 138.542C166.977 143.045 163.318 148.488 160.907 154.513L117.416 260.029C135.718 246.505 158.939 205.477 168.249 179.366Z" fill="#FFF6E7"/>
</g>
<g style="mix-blend-mode:multiply" opacity="0.28">
<path d="M296.31 179.366C285.401 148.706 284.798 148.94 260.986 143.319C237.175 137.697 241.849 115.728 241.849 115.728L263.988 123.84L267.431 125.073L276.336 128.315L276.533 128.389C282.628 130.581 288.191 134.042 292.855 138.545C297.519 143.047 301.178 148.49 303.591 154.513L347.082 260.029C328.817 246.505 305.596 205.477 296.31 179.366Z" fill="#4C2A29"/>
</g>
<path d="M232.378 132.531H232.206C229.205 132.531 226.327 131.336 224.205 129.209C222.083 127.082 220.891 124.198 220.891 121.189V94.0674H243.743V121.189C243.743 122.683 243.449 124.162 242.877 125.541C242.305 126.921 241.467 128.173 240.411 129.227C239.355 130.281 238.102 131.115 236.724 131.682C235.345 132.249 233.868 132.538 232.378 132.531V132.531Z" fill="#FF7E6E"/>
<path d="M243.509 114.976H243.694V94.1167H233.03L220.841 98.5302C220.841 98.5302 225.368 114.976 243.509 114.976Z" fill="#4C2A29"/>
<path d="M258.846 77.8436C258.846 79.3066 258.414 80.7367 257.603 81.9531C256.792 83.1695 255.639 84.1176 254.291 84.6775C252.942 85.2373 251.459 85.3838 250.027 85.0984C248.596 84.813 247.281 84.1085 246.249 83.074C245.217 82.0395 244.514 80.7215 244.229 79.2866C243.944 77.8518 244.09 76.3645 244.649 75.0129C245.208 73.6613 246.153 72.506 247.367 71.6933C248.581 70.8805 250.007 70.4466 251.467 70.4466C253.424 70.4466 255.301 71.226 256.685 72.6131C258.069 74.0003 258.846 75.8818 258.846 77.8436V77.8436Z" fill="#C64F4F"/>
<path d="M252.943 85.0556C253.947 80.5579 254.621 75.9924 254.96 71.3959C253.905 70.8136 252.721 70.5042 251.516 70.496C250.486 70.3839 249.444 70.4906 248.457 70.8091C247.471 71.1276 246.563 71.6507 245.791 72.3445C245.02 73.0382 244.403 73.887 243.981 74.8355C243.559 75.784 243.341 76.811 243.341 77.8497C243.341 78.8884 243.559 79.9155 243.981 80.864C244.403 81.8125 245.02 82.6613 245.791 83.355C246.563 84.0487 247.471 84.5719 248.457 84.8904C249.444 85.2088 250.486 85.3156 251.516 85.2035C251.996 85.2044 252.474 85.1548 252.943 85.0556V85.0556Z" fill="#803D3D"/>
<path d="M205.676 77.8436C205.676 79.3066 206.109 80.7367 206.92 81.9531C207.731 83.1695 208.884 84.1176 210.232 84.6775C211.58 85.2373 213.064 85.3838 214.496 85.0984C215.927 84.813 217.242 84.1085 218.274 83.074C219.306 82.0395 220.009 80.7215 220.294 79.2866C220.579 77.8518 220.432 76.3645 219.874 75.0129C219.315 73.6613 218.37 72.506 217.156 71.6933C215.942 70.8805 214.516 70.4466 213.056 70.4466C211.099 70.4466 209.222 71.226 207.838 72.6131C206.454 74.0003 205.676 75.8818 205.676 77.8436Z" fill="#C64F4F"/>
<path d="M211.592 85.0556C210.59 80.557 209.912 75.992 209.563 71.3959C210.552 70.8265 211.659 70.4945 212.798 70.4262C213.936 70.3578 215.075 70.5549 216.125 71.002C217.174 71.4491 218.106 72.1339 218.848 73.0028C219.589 73.8717 220.119 74.901 220.397 76.0098C220.674 77.1187 220.691 78.2769 220.447 79.3936C220.203 80.5103 219.704 81.5551 218.989 82.4459C218.274 83.3367 217.363 84.0494 216.327 84.5278C215.291 85.0063 214.159 85.2376 213.019 85.2035C212.54 85.205 212.061 85.1554 211.592 85.0556V85.0556Z" fill="#803D3D"/>
<path d="M245.182 52.1023H219.353L212.958 66.0948L214.028 79.9517C214.606 87.3486 219.378 100.121 226.081 103.252C227.984 104.272 230.109 104.805 232.268 104.805C234.426 104.805 236.551 104.272 238.454 103.252C245.157 100.121 249.929 87.3486 250.495 79.9517L251.578 66.0948L245.182 52.1023Z" fill="#FF7E6E"/>
<path d="M238.897 69.6946C241.934 70.4185 245.097 70.4185 248.134 69.6946" stroke="#2F2F35" stroke-width="1.34" stroke-miterlimit="10" stroke-linecap="round"/>
<path d="M237.495 61.7306C237.495 61.7306 243.817 60.6827 247.629 62.8772" stroke="#2F2F35" stroke-width="2.67" stroke-miterlimit="10" stroke-linecap="round"/>
<path d="M225.638 69.6946C222.602 70.4185 219.438 70.4185 216.401 69.6946" stroke="#2F2F35" stroke-width="1.34" stroke-miterlimit="10" stroke-linecap="round"/>
<path d="M227.04 61.7306C227.04 61.7306 220.706 60.6827 216.906 62.8772" stroke="#2F2F35" stroke-width="2.67" stroke-miterlimit="10" stroke-linecap="round"/>
<g style="mix-blend-mode:overlay" opacity="0.52">
<path d="M221.973 81.7763C221.124 67.7714 219.353 52.1886 219.353 52.1886L212.958 66.1811L213.302 70.5823H213.019C211.989 70.4702 210.947 70.5769 209.96 70.8954C208.974 71.2139 208.066 71.7371 207.294 72.4308C206.523 73.1245 205.906 73.9732 205.484 74.9218C205.062 75.8703 204.844 76.8973 204.844 77.936C204.844 78.9747 205.062 80.0017 205.484 80.9503C205.906 81.8988 206.523 82.7475 207.294 83.4413C208.066 84.135 208.974 84.6581 209.96 84.9766C210.947 85.2951 211.989 85.4018 213.019 85.2898C213.642 85.2798 214.262 85.1928 214.864 85.0309C216.598 92.1812 220.706 100.86 226.081 103.363C227.994 104.321 230.093 104.851 232.231 104.916C226.256 98.6161 222.633 90.443 221.973 81.7763Z" fill="#FFF6E7"/>
</g>
<path d="M276.398 349.729L130.318 305.348C125.718 303.941 120.882 303.481 116.1 303.996C111.318 304.511 106.689 305.99 102.492 308.344C98.2954 310.698 94.6166 313.878 91.6773 317.693C88.7381 321.509 86.599 325.881 85.3887 330.547L85.2043 331.286C83.9475 336.075 83.6967 341.073 84.4678 345.963C85.2389 350.854 87.015 355.531 89.6837 359.697C92.3524 363.864 95.8555 367.429 99.9709 370.168C104.086 372.907 108.724 374.758 113.591 375.606C167.598 385.062 265.5 401.163 317.022 403.123L338.731 417.633C340.323 418.7 342.23 419.195 344.139 419.039C346.048 418.882 347.848 418.082 349.247 416.77L349.357 416.659C350.999 415.117 351.963 412.985 352.037 410.731C352.111 408.477 351.288 406.286 349.751 404.639L346.356 400.99C345.163 396.344 342.927 392.032 339.82 388.383C336.712 384.734 332.815 381.844 328.424 379.933C313.517 373.609 312.115 358.162 308.61 349.742C305.104 341.322 282.695 337.093 276.398 349.729Z" fill="#8C4242"/>
<path d="M85.3887 330.51C86.599 325.844 88.7381 321.472 91.6773 317.656C94.6166 313.841 98.2954 310.66 102.492 308.307C106.689 305.953 111.318 304.474 116.1 303.959C120.882 303.444 125.718 303.904 130.318 305.311L179.848 320.376C172.394 329.708 162.543 348.644 162.247 383.792C144.167 380.846 127.428 377.986 113.591 375.569C108.724 374.721 104.086 372.87 99.9709 370.131C95.8555 367.392 92.3524 363.827 89.6837 359.66C87.015 355.494 85.2389 350.817 84.4678 345.926C83.6967 341.036 83.9475 336.038 85.2043 331.249L85.3887 330.51Z" fill="#FF8906"/>
<g style="mix-blend-mode:multiply" opacity="0.67">
<path d="M131.474 361.392C131.48 367.157 130.127 372.843 127.526 377.986L113.591 375.52C108.724 374.672 104.086 372.82 99.9709 370.082C95.8555 367.343 92.3524 363.778 89.6837 359.611C87.015 355.444 85.2389 350.768 84.4678 345.877C83.6967 340.986 83.9475 335.989 85.2043 331.2L85.3887 330.46C85.8504 328.724 86.434 327.023 87.1353 325.369C89.651 324.839 92.2147 324.57 94.7854 324.568C99.6076 324.568 104.383 325.52 108.837 327.372C113.292 329.223 117.338 331.936 120.746 335.356C124.153 338.776 126.855 342.836 128.696 347.303C130.537 351.771 131.481 356.558 131.474 361.392V361.392Z" fill="#A87D1D"/>
</g>
<path d="M283.396 370.095C283.396 370.095 281.293 382.362 260.986 377.986" stroke="#7B3C38" stroke-width="1.14" stroke-miterlimit="10"/>
<g style="mix-blend-mode:multiply" opacity="0.28">
<path d="M296.31 364.474C296.31 364.474 265.18 363.068 199.342 351.295C146 341.765 130.355 314.397 126.333 304.349C127.679 304.594 129.009 304.915 130.318 305.311L276.397 349.692C282.695 337.056 305.104 341.272 308.609 349.692C312.115 358.113 313.529 373.56 328.424 379.884C332.82 381.8 336.721 384.697 339.829 388.355C342.937 392.013 345.169 396.335 346.356 400.99C346.356 400.99 331.031 391.127 321.327 389.056C311.623 386.985 296.31 364.474 296.31 364.474Z" fill="#4C2A29"/>
</g>
<path d="M303.05 402.297C303.05 402.297 329.875 428.026 352.739 417.436C353.625 417.009 354.406 416.391 355.026 415.626C355.645 414.861 356.089 413.968 356.324 413.012C356.559 412.055 356.58 411.058 356.386 410.092C356.191 409.127 355.786 408.216 355.199 407.425C335.939 381.203 311.647 352.639 302.398 341.901C301.261 340.585 299.772 339.624 298.107 339.13C296.441 338.636 294.67 338.631 293.002 339.115L266.706 346.746L303.05 402.297Z" fill="#2F2F35"/>
<path d="M266.706 346.783L241.48 339.115L260.593 398.068L303.05 402.297L266.706 346.783Z" fill="#A5A5A5"/>
<path d="M188.137 349.729L334.217 305.348C338.816 303.943 343.651 303.485 348.432 304C353.212 304.516 357.839 305.995 362.035 308.349C366.23 310.703 369.908 313.883 372.846 317.697C375.785 321.512 377.924 325.883 379.134 330.547L379.331 331.286C380.588 336.075 380.838 341.073 380.067 345.963C379.296 350.854 377.52 355.531 374.851 359.697C372.183 363.864 368.68 367.429 364.564 370.168C360.449 372.907 355.811 374.758 350.944 375.606C296.925 385.062 199.035 401.163 147.513 403.123L125.792 417.633C124.201 418.699 122.297 419.194 120.39 419.037C118.483 418.88 116.685 418.081 115.288 416.77L115.178 416.659C113.536 415.117 112.572 412.985 112.498 410.731C112.425 408.477 113.247 406.286 114.784 404.639L118.179 401.015C119.372 396.37 121.606 392.059 124.711 388.411C127.816 384.762 131.711 381.871 136.099 379.958C151.018 373.634 152.42 358.187 155.925 349.766C159.431 341.346 181.84 337.093 188.137 349.729Z" fill="#FF7E6E"/>
<path d="M379.134 330.51C377.924 325.846 375.785 321.475 372.847 317.66C369.908 313.846 366.231 310.666 362.035 308.312C357.839 305.958 353.212 304.479 348.432 303.963C343.651 303.448 338.816 303.906 334.217 305.311L284.675 320.376C292.141 329.708 301.98 348.644 302.276 383.792C320.368 380.846 337.095 377.986 350.944 375.569C355.811 374.721 360.449 372.87 364.564 370.131C368.68 367.392 372.183 363.827 374.851 359.66C377.52 355.494 379.296 350.817 380.067 345.926C380.839 341.036 380.588 336.038 379.331 331.249L379.134 330.51Z" fill="#FF8906"/>
<g style="mix-blend-mode:multiply" opacity="0.67">
<path d="M333.061 361.392C333.056 367.157 334.408 372.843 337.009 377.986L350.944 375.52C355.811 374.672 360.449 372.82 364.564 370.082C368.68 367.343 372.183 363.778 374.851 359.611C377.52 355.444 379.296 350.768 380.067 345.877C380.838 340.986 380.588 335.989 379.331 331.2L379.134 330.46C378.682 328.723 378.102 327.021 377.4 325.369C374.884 324.839 372.32 324.57 369.75 324.568C364.927 324.566 360.151 325.518 355.696 327.368C351.241 329.219 347.194 331.932 343.786 335.352C340.378 338.773 337.677 342.833 335.836 347.302C333.996 351.77 333.053 356.558 333.061 361.392V361.392Z" fill="#A87D1D"/>
</g>
<g style="mix-blend-mode:multiply" opacity="0.28">
<path d="M168.249 364.474C168.249 364.474 199.367 363.068 265.205 351.295C318.548 341.765 334.205 314.397 338.214 304.349C336.873 304.594 335.546 304.915 334.241 305.311L188.162 349.692C181.865 337.056 159.443 341.272 155.95 349.692C152.457 358.113 151.03 373.56 136.124 379.884C131.726 381.799 127.823 384.696 124.713 388.354C121.602 392.012 119.368 396.334 118.179 400.99C118.179 400.99 133.504 391.127 143.196 389.056C152.888 386.985 168.249 364.474 168.249 364.474Z" fill="#4C2A29"/>
</g>
<path opacity="0.57" d="M136.099 379.921L114.206 375.853C109.497 375.099 104.984 373.417 100.927 370.904C96.8713 368.39 93.3527 365.095 90.5754 361.21C87.7981 357.324 85.8173 352.925 84.7475 348.267C83.6778 343.609 83.5404 338.784 84.3433 334.073L84.4786 333.296C85.3484 328.205 87.2966 323.36 90.1919 319.087C93.0873 314.815 96.8625 311.214 101.263 308.527C105.664 305.84 110.588 304.13 115.704 303.511C120.82 302.893 126.009 303.38 130.921 304.941L172.259 318.071" stroke="white" stroke-width="1.11" stroke-miterlimit="10"/>
<path d="M224.753 81.5421C224.575 81.5426 224.4 81.5929 224.249 81.6873C224.098 81.7816 223.975 81.9164 223.896 82.0763C223.817 82.2363 223.784 82.4153 223.801 82.5931C223.817 82.7709 223.883 82.9406 223.99 83.0831C224.88 84.4779 226.106 85.6257 227.554 86.4208C229.003 87.2159 230.628 87.6327 232.28 87.6327C233.932 87.6327 235.557 87.2159 237.005 86.4208C238.454 85.6257 239.68 84.4779 240.57 83.0831C240.678 82.9397 240.743 82.7689 240.76 82.59C240.776 82.4111 240.741 82.2312 240.661 82.0708C240.58 81.9104 240.456 81.7758 240.303 81.6824C240.15 81.5889 239.974 81.5403 239.795 81.5421H224.753Z" fill="white"/>
<path d="M234.432 69.3618V76.9805C233.775 76.6823 233.063 76.528 232.341 76.528C231.62 76.528 230.907 76.6823 230.25 76.9805" stroke="#2F2F35" stroke-width="0.82" stroke-miterlimit="10" stroke-linecap="round"/>
<path d="M240.767 41.9069H238.897V53.8282H240.767V41.9069Z" fill="#FF7E6E"/>
<path d="M349.05 264.616L349.124 264.837C351.23 270.716 351.145 277.159 348.884 282.979C346.624 288.799 342.341 293.605 336.824 296.509L258.846 337.5L258.465 336.501C255.139 327.891 255.015 318.369 258.115 309.674C261.216 300.98 267.334 293.694 275.352 289.149L310.479 269.226L349.05 264.616Z" fill="#FF7E6E"/>
<g style="mix-blend-mode:multiply" opacity="0.28">
<path d="M332.593 289.728C332.589 292.514 333.269 295.257 334.573 297.717L336.861 296.484C341.169 294.21 344.749 290.761 347.186 286.536C349.623 282.311 350.819 277.481 350.636 272.604C350.317 272.604 350.009 272.604 349.689 272.604C345.157 272.604 340.811 274.408 337.605 277.619C334.399 280.83 332.596 285.185 332.593 289.728V289.728Z" fill="#4C2A29"/>
</g>
<path d="M310.479 269.226L332.593 256.664" stroke="#4C2A29" stroke-width="1.34" stroke-miterlimit="10" stroke-linecap="round"/>
<path d="M115.694 264.616L115.62 264.837C113.514 270.716 113.599 277.159 115.86 282.979C118.12 288.799 122.403 293.605 127.92 296.509L205.922 337.5L206.304 336.501C209.632 327.891 209.758 318.368 206.657 309.673C203.556 300.978 197.436 293.692 189.417 289.149L154.29 269.226L115.694 264.616Z" fill="#FF7E6E"/>
<g style="mix-blend-mode:multiply" opacity="0.28">
<path d="M132.163 289.728C132.166 292.512 131.49 295.254 130.195 297.717L127.908 296.484C123.603 294.212 120.027 290.767 117.59 286.547C115.152 282.326 113.954 277.502 114.132 272.629C114.452 272.629 114.76 272.629 115.079 272.629C119.605 272.632 123.945 274.434 127.147 277.639C130.35 280.844 132.153 285.192 132.163 289.728V289.728Z" fill="#4C2A29"/>
</g>
<path d="M154.277 269.226L132.163 256.664" stroke="#4C2A29" stroke-width="1.34" stroke-miterlimit="10" stroke-linecap="round"/>
<path d="M197.251 332.951C197.251 332.951 201.187 311.29 188.371 304.349" stroke="#4C2A29" stroke-width="1.34" stroke-miterlimit="10" stroke-linecap="round"/>
<path d="M267.284 332.951C267.284 332.951 263.348 311.29 276.164 304.349" stroke="#4C2A29" stroke-width="1.34" stroke-miterlimit="10" stroke-linecap="round"/>
<path d="M161.485 402.297C161.485 402.297 134.66 428.026 111.795 417.436C110.908 417.011 110.125 416.393 109.505 415.629C108.884 414.864 108.439 413.971 108.204 413.013C107.969 412.056 107.948 411.058 108.144 410.092C108.34 409.126 108.747 408.215 109.335 407.425C128.596 381.203 152.875 352.639 162.137 341.901C163.274 340.585 164.763 339.624 166.428 339.13C168.094 338.636 169.865 338.631 171.533 339.115L197.768 346.746L161.485 402.297Z" fill="#2F2F35"/>
<path d="M197.817 346.783L223.055 339.115L203.942 398.068L161.485 402.297L197.817 346.783Z" fill="#ECECEC"/>
<g style="mix-blend-mode:multiply" opacity="0.28">
<path d="M187.326 362.773C194.816 361.971 204.545 360.8 216.561 359.074L223.055 339.041L197.768 346.746L187.326 362.773Z" fill="#4C2A29"/>
</g>
<path d="M169.48 384.396L154.843 406.759C154.395 407.441 153.763 407.982 153.021 408.32C152.279 408.658 151.457 408.78 150.649 408.67H150.551C149.824 408.57 149.136 408.286 148.549 407.844C147.963 407.403 147.498 406.82 147.199 406.149C146.9 405.478 146.777 404.741 146.84 404.009C146.904 403.277 147.152 402.573 147.562 401.964L162.53 379.773C163 379.081 163.666 378.548 164.443 378.242C165.22 377.936 166.071 377.873 166.884 378.059H166.97C167.624 378.207 168.232 378.513 168.741 378.949C169.25 379.386 169.645 379.94 169.892 380.564C170.14 381.189 170.231 381.864 170.159 382.532C170.087 383.199 169.854 383.839 169.48 384.396V384.396Z" fill="#FFF6E7"/>
<path d="M230.25 255.16H140.674L162.764 334.011H230.25H297.749L319.839 255.16H230.25Z" fill="#AFAFAF"/>
<path d="M297.749 334.011H162.764V345.501H297.749V334.011Z" fill="#8B8B8C"/>
<path d="M230.41 312.042C242.508 312.042 252.316 307.008 252.316 300.799C252.316 294.589 242.508 289.555 230.41 289.555C218.313 289.555 208.505 294.589 208.505 300.799C208.505 307.008 218.313 312.042 230.41 312.042Z" fill="#5A5A63"/>
<path d="M319.827 249.92H140.674V255.148H319.827V249.92Z" fill="#5A5A63"/>
<path d="M183.759 337.303H170.242V341.926H183.759V337.303Z" fill="#5A5A63"/>
<path d="M203.266 337.303H189.749V341.926H203.266V337.303Z" fill="#5A5A63"/>
<path d="M297.749 339.756H215.59" stroke="#0F1201" stroke-miterlimit="10"/>
<g style="mix-blend-mode:overlay" opacity="0.54">
<path d="M140.674 255.16L162.813 334.06H210.891C239.438 300.885 256.78 255.16 256.78 255.16L256.718 249.92H140.674V255.16Z" fill="white"/>
</g>
<path opacity="0.57" d="M140.674 255.16H319.839" stroke="#0F1201" stroke-miterlimit="10"/>
<g style="mix-blend-mode:multiply" opacity="0.87">
<path d="M47.6051 403.949C65.5448 403.949 80.0877 403.209 80.0877 402.297C80.0877 401.384 65.5448 400.645 47.6051 400.645C29.6655 400.645 15.1226 401.384 15.1226 402.297C15.1226 403.209 29.6655 403.949 47.6051 403.949Z" fill="#515159"/>
</g>
<path d="M52.3526 386.085L54.4927 383.731L53.4227 384.963L54.4927 383.804C54.2344 383.558 28.6026 357.508 59.56 240.107L56.5221 239.306C24.9005 359.074 51.2211 385.037 52.3526 386.085Z" fill="#5A5A63"/>
<path d="M42.7961 242.092C54.5297 252.78 52.4634 265.405 52.4634 265.405C52.4634 265.405 40.7298 260.449 38.0117 244.743C37.9076 244.148 37.9913 243.536 38.251 242.992C38.5107 242.447 38.9335 241.998 39.4603 241.706C39.9872 241.414 40.5918 241.295 41.1899 241.364C41.7879 241.433 42.3494 241.687 42.7961 242.092V242.092Z" fill="#5A5A63"/>
<path d="M72.1546 249.637C56.7436 253.335 52.4757 265.405 52.4757 265.405C52.4757 265.405 65.1932 266.637 75.0942 254.309C75.4905 253.839 75.727 253.255 75.7696 252.641C75.8122 252.027 75.6586 251.415 75.3311 250.894C75.0035 250.374 74.5191 249.971 73.948 249.745C73.3768 249.519 72.7487 249.481 72.1546 249.637V249.637Z" fill="#5A5A63"/>
<path d="M34.777 272.777C47.5068 282.233 46.732 294.968 46.732 294.968C46.732 294.968 34.5433 291.158 30.2631 275.859C30.1063 275.278 30.134 274.662 30.3424 274.097C30.5508 273.533 30.9295 273.047 31.426 272.708C31.9224 272.369 32.5119 272.193 33.1125 272.206C33.713 272.218 34.2948 272.418 34.777 272.777V272.777Z" fill="#5A5A63"/>
<path d="M64.7259 277.338C49.7699 282.639 46.7319 294.968 46.7319 294.968C46.7319 294.968 59.4987 294.968 68.1082 281.604C68.4198 281.097 68.568 280.506 68.5326 279.911C68.4971 279.317 68.2798 278.748 67.9101 278.282C67.5404 277.815 67.0364 277.475 66.4666 277.306C65.8968 277.137 65.289 277.148 64.7259 277.338Z" fill="#5A5A63"/>
<path d="M29.6727 299.714C43.0791 308.196 43.202 320.992 43.202 320.992C43.202 320.992 30.7674 318.095 25.368 303.153C25.1412 302.579 25.1046 301.946 25.2634 301.349C25.4223 300.752 25.7682 300.222 26.2503 299.837C26.7324 299.452 27.3252 299.232 27.9413 299.21C28.5575 299.187 29.1644 299.364 29.6727 299.714V299.714Z" fill="#5A5A63"/>
<path d="M59.8799 302.032C45.3544 308.368 43.2512 320.992 43.2512 320.992C43.2512 320.992 55.981 320.018 63.582 306.063C63.8682 305.532 63.982 304.925 63.9074 304.326C63.8327 303.728 63.5735 303.167 63.1659 302.723C62.7582 302.28 62.2225 301.974 61.6334 301.85C61.0443 301.726 60.4313 301.79 59.8799 302.032V302.032Z" fill="#5A5A63"/>
<path d="M67.9359 218.533C68.1942 234.412 57.6045 241.562 57.6045 241.562C57.6045 241.562 53.2136 229.542 62.721 216.905C63.0776 216.421 63.576 216.06 64.1468 215.872C64.7177 215.685 65.3326 215.68 65.9062 215.859C66.4798 216.038 66.9835 216.392 67.3472 216.871C67.711 217.35 67.9168 217.931 67.9359 218.533V218.533Z" fill="#5A5A63"/>
<path d="M63.4097 334.036H29.3528V401.569H63.4097V334.036Z" fill="#FF8906"/>
<g style="mix-blend-mode:multiply" opacity="0.67">
<path d="M63.3975 334.036H49.7944V401.569H63.3975V334.036Z" fill="#A87D1D"/>
</g>
<path d="M358.349 13.3988C354.035 9.48023 348.917 6.55575 343.356 4.83068L343.11 4.75671C338.166 3.43404 332.962 3.43404 328.018 4.75671L327.773 4.83068C322.206 6.57394 317.088 9.51971 312.78 13.4604C300.21 25.3324 302.19 46.9931 314.489 58.4213C317.908 61.6266 319.409 65.7566 320.454 70.318C320.774 71.6987 322.582 86.0241 321.955 86.0241H349.173C348.534 86.0241 350.403 71.6987 350.662 70.318C351.719 65.7566 353.22 61.6266 356.639 58.4213C368.828 46.9931 370.869 25.3324 358.349 13.3988Z" fill="#FF8906"/>
<g style="mix-blend-mode:overlay" opacity="0.52">
<path d="M330.638 70.3301C329.58 65.7687 328.08 61.6387 324.661 58.4334C312.472 47.0052 310.43 25.3446 322.951 13.4109C327.268 9.48766 332.39 6.55901 337.956 4.83047L338.19 4.7565C339.002 4.53459 339.826 4.37432 340.65 4.22639C336.451 3.47794 332.14 3.65887 328.018 4.7565L327.772 4.83047C322.206 6.57373 317.088 9.5195 312.78 13.4602C300.21 25.3322 302.19 46.9928 314.489 58.4211C317.908 61.6264 319.409 65.7563 320.454 70.3178C320.774 71.6985 322.582 86.0239 321.955 86.0239H332.176C332.766 86.0239 330.946 71.6985 330.638 70.3301Z" fill="#FFF6E7"/>
</g>
<path d="M335.533 86.0241V52.6024L341.4 49.2121C341.854 48.9813 342.225 48.6151 342.463 48.1639C342.7 47.7128 342.792 47.1989 342.726 46.6931C342.66 46.1873 342.439 45.7145 342.094 45.3399C341.748 44.9653 341.295 44.7073 340.798 44.6014L330.109 41.7782C329.709 41.6745 329.35 41.4482 329.084 41.131C328.817 40.8137 328.656 40.4211 328.622 40.0078C328.588 39.5944 328.684 39.1807 328.895 38.8242C329.107 38.4677 329.424 38.1859 329.802 38.0182L335.533 35.4292V24.0873" stroke="#FEFEFE" stroke-width="2.24" stroke-miterlimit="10" stroke-linecap="round"/>
<path d="M351.879 90.6225C351.881 90.8648 351.835 91.105 351.743 91.3293C351.652 91.5535 351.517 91.7575 351.347 91.9294C351.177 92.1013 350.974 92.2377 350.751 92.3307C350.528 92.4238 350.288 92.4717 350.047 92.4717H320.073C319.584 92.4717 319.115 92.2769 318.769 91.9301C318.423 91.5833 318.228 91.113 318.228 90.6225V90.6225C318.232 90.1342 318.427 89.667 318.773 89.3229C319.119 88.9787 319.586 88.7856 320.073 88.7856H350.047C350.533 88.7856 350.999 88.9791 351.342 89.3236C351.686 89.6681 351.879 90.1353 351.879 90.6225Z" fill="#2F2F35"/>
<path d="M351.879 96.1455C351.881 96.3872 351.835 96.6268 351.743 96.8504C351.652 97.074 351.517 97.2772 351.346 97.4481C351.176 97.619 350.973 97.7542 350.75 97.8459C350.527 97.9377 350.288 97.9841 350.047 97.9824H320.073C319.831 97.9841 319.592 97.9377 319.368 97.8462C319.144 97.7546 318.941 97.6195 318.769 97.4488C318.598 97.2781 318.462 97.075 318.369 96.8513C318.276 96.6277 318.228 96.3878 318.228 96.1455C318.232 95.6572 318.427 95.19 318.773 94.8459C319.119 94.5017 319.586 94.3086 320.073 94.3086H350.047C350.533 94.3086 350.999 94.5022 351.342 94.8466C351.686 95.1911 351.879 95.6584 351.879 96.1455Z" fill="#2F2F35"/>
<path d="M351.879 101.669C351.879 102.156 351.686 102.623 351.342 102.967C350.999 103.312 350.533 103.505 350.047 103.505H320.073C319.586 103.505 319.119 103.312 318.773 102.968C318.427 102.624 318.232 102.157 318.228 101.669V101.669C318.228 101.426 318.276 101.186 318.369 100.963C318.462 100.739 318.598 100.536 318.769 100.365C318.941 100.195 319.144 100.059 319.368 99.9679C319.592 99.8763 319.831 99.83 320.073 99.8316H350.047C350.288 99.83 350.527 99.8764 350.75 99.9681C350.973 100.06 351.176 100.195 351.346 100.366C351.517 100.537 351.652 100.74 351.743 100.964C351.835 101.187 351.881 101.427 351.879 101.669V101.669Z" fill="#2F2F35"/>
<path d="M335.054 116.388C337.895 116.388 340.62 115.257 342.629 113.243C344.638 111.23 345.767 108.498 345.767 105.651H324.329C324.329 107.062 324.606 108.459 325.145 109.763C325.685 111.066 326.475 112.25 327.471 113.248C328.467 114.245 329.649 115.036 330.95 115.575C332.252 116.113 333.646 116.39 335.054 116.388V116.388Z" fill="#2F2F35"/>
<path d="M60.4975 102.936V94.306H56.6847C55.9786 90.2831 54.3397 86.4826 51.9003 83.2107L54.9259 80.1779L48.7762 74.0138L45.6399 77.1575C42.3584 74.9229 38.6095 73.4721 34.6812 72.9166V68.4538H26.0716V73.1385C22.299 73.8581 18.7326 75.4076 15.6295 77.6753L12.5792 74.6179L6.42955 80.782L9.5167 83.8887C7.22056 87.1742 5.70973 90.9453 5.10123 94.9101H0.821045V103.54H5.32261C6.01018 107.416 7.57077 111.084 9.88567 114.265L6.47876 117.631L12.6284 123.795L16.0353 120.38C19.2252 122.616 22.8723 124.111 26.7112 124.757V129.417H35.3208V124.757C39.1503 124.12 42.7894 122.633 45.972 120.405L48.8254 123.253L54.9751 117.15L52.0602 114.253C54.4988 110.91 56.1015 107.029 56.7339 102.936H60.4975ZM30.9791 113.563C28.0759 113.565 25.2373 112.704 22.8225 111.089C20.4076 109.474 18.525 107.177 17.4129 104.489C16.3008 101.801 16.0092 98.843 16.575 95.9889C17.1408 93.1347 18.5385 90.513 20.5913 88.4553C22.6441 86.3977 25.2597 84.9967 28.1072 84.4296C30.9547 83.8625 33.906 84.1548 36.5876 85.2695C39.2693 86.3842 41.5608 88.2712 43.1722 90.6917C44.7835 93.1123 45.6423 95.9575 45.6399 98.8674C45.6399 102.765 44.0953 106.503 41.3459 109.259C38.5964 112.014 34.8674 113.563 30.9791 113.563Z" fill="#666666"/>
<path d="M94.862 135.704V130.773H92.6481C92.2362 128.457 91.2884 126.269 89.8808 124.387L91.6273 122.636L88.1097 119.11L86.3017 120.923C84.4122 119.623 82.2486 118.779 79.9798 118.457V115.856H75.0601V118.556C72.8823 118.967 70.8235 119.86 69.0333 121.169L67.2746 119.406L63.757 122.932L65.5403 124.72C64.2137 126.616 63.3385 128.792 62.9821 131.081H60.5222V136.012H63.0436C63.4445 138.24 64.3445 140.348 65.6756 142.176L63.7323 144.124L67.25 147.65L69.2179 145.678C71.0537 146.97 73.1551 147.833 75.3675 148.205V150.917H80.2873V148.23C82.4948 147.877 84.5959 147.035 86.437 145.764L88.0728 147.416L91.5904 143.89L90.016 142.287C91.4178 140.354 92.3411 138.115 92.7096 135.753L94.862 135.704ZM77.8397 141.868C76.1656 141.868 74.529 141.37 73.1372 140.438C71.7454 139.505 70.6608 138.18 70.0207 136.629C69.3806 135.079 69.2138 133.373 69.5413 131.727C69.8688 130.081 70.6759 128.57 71.8606 127.384C73.0452 126.199 74.5542 125.392 76.1964 125.066C77.8387 124.74 79.5405 124.91 81.0865 125.554C82.6325 126.198 83.9532 127.287 84.8815 128.683C85.8099 130.08 86.3041 131.721 86.3017 133.399C86.2887 135.631 85.3983 137.768 83.8234 139.347C82.2484 140.926 80.1161 141.818 77.8889 141.831L77.8397 141.868Z" fill="#9E9E9E"/>
<path d="M173.209 71.1537V53.4134H165.386C163.939 45.1608 160.568 37.3674 155.547 30.6679L161.758 24.4422L149.225 11.8921L142.792 18.3521C136.053 13.7581 128.354 10.7723 120.285 9.62373V0.352936H102.61V9.96892C94.8574 11.4417 87.5271 14.6207 81.1481 19.2767L74.8877 13.0017L62.367 25.5394L68.7135 31.9008C63.9848 38.6465 60.8781 46.3977 59.6365 54.5476H50.8302V72.3002H59.821C61.2458 80.2587 64.4499 87.7905 69.1931 94.3307L62.2809 101.259L74.8139 113.809L81.8123 106.794C88.3499 111.395 95.8365 114.463 103.717 115.769V125.348H121.416V115.769C129.279 114.469 136.752 111.419 143.284 106.844L149.225 112.7L161.746 100.15L155.99 94.38C160.996 87.5135 164.29 79.5451 165.595 71.1414L173.209 71.1537ZM112.598 92.9746C106.64 92.9746 100.817 91.2039 95.8631 87.8864C90.9097 84.5688 87.049 79.8536 84.7692 74.3367C82.4894 68.8199 81.8929 62.7494 83.0552 56.8928C84.2174 51.0361 87.0862 45.6565 91.2987 41.4341C95.5112 37.2117 100.878 34.3362 106.721 33.1713C112.564 32.0063 118.62 32.6042 124.124 34.8893C129.628 37.1745 134.333 41.0442 137.642 46.0092C140.952 50.9742 142.719 56.8115 142.719 62.7829C142.719 70.7902 139.545 78.4696 133.896 84.1316C128.248 89.7937 120.586 92.9746 112.598 92.9746V92.9746Z" fill="#8B8B8C"/>
</svg>
